<svg width="64" height="64" viewBox="0 0 64 64" fill="none" xmlns="http://www.w3.org/2000/svg">
<path d="M31.5962 7.18596C24.1421 7.07652 13.7875 7.23652 11.6557 12.9632L6.41793 25.2538C6.18562 24.988 5.88095 24.7957 5.54113 24.7002L3.43233 24.1069C3.20045 24.0412 2.95787 24.0219 2.7185 24.0501C2.47914 24.0784 2.24771 24.1536 2.0375 24.2715C1.82729 24.3894 1.64244 24.5477 1.49356 24.7373C1.34468 24.9268 1.2347 25.1439 1.16993 25.376L0.0697736 29.2826C0.00411981 29.5144 -0.0151122 29.757 0.0131808 29.9963C0.0414738 30.2355 0.116735 30.4669 0.234647 30.677C0.352559 30.8872 0.510801 31.072 0.700295 31.2208C0.889788 31.3696 1.1068 31.4796 1.33889 31.5444L3.44833 32.1383C3.51873 32.1575 3.58913 32.1639 3.65953 32.1754C3.25633 33.1802 3.00545 34.2848 3.00545 34.9421V49.2269C3.00545 49.9591 3.31265 50.2983 3.80033 50.457V54.2624C3.79957 54.6003 3.86555 54.9349 3.99448 55.2472C4.12341 55.5594 4.31275 55.8431 4.55163 56.082C4.79051 56.3209 5.07423 56.5102 5.38648 56.6392C5.69874 56.7681 6.03339 56.8341 6.37121 56.8333H13.2685C13.6063 56.8341 13.941 56.7681 14.2532 56.6392C14.5655 56.5102 14.8492 56.3209 15.0881 56.082C15.327 55.8431 15.5163 55.5594 15.6452 55.2472C15.7742 54.9349 15.8401 54.6003 15.8394 54.2624V50.5965H48.1613V54.2624C48.1607 54.6003 48.2268 54.9349 48.3559 55.2471C48.4849 55.5593 48.6743 55.843 48.9132 56.0819C49.1521 56.3207 49.4358 56.5101 49.7481 56.639C50.0603 56.768 50.395 56.834 50.7328 56.8333H57.6288C57.9667 56.8341 58.3014 56.7681 58.6137 56.6392C58.9261 56.5103 59.2099 56.321 59.4488 56.0821C59.6878 55.8432 59.8773 55.5595 60.0064 55.2473C60.1354 54.935 60.2016 54.6003 60.201 54.2624V50.4576C60.6893 50.2989 60.9946 49.9597 60.9946 49.2276V34.9428C60.9946 34.2855 60.7431 33.1808 60.3405 32.176C60.4109 32.1652 60.4813 32.1588 60.5517 32.1389L62.6618 31.545C62.8938 31.4802 63.1108 31.3702 63.3002 31.2213C63.4896 31.0724 63.6478 30.8876 63.7656 30.6775C63.8835 30.4674 63.9587 30.236 63.9869 29.9968C64.0152 29.7575 63.9959 29.515 63.9303 29.2832L62.8314 25.3767C62.7665 25.1445 62.6565 24.9274 62.5075 24.7379C62.3586 24.5483 62.1737 24.39 61.9634 24.2721C61.7532 24.1542 61.5217 24.079 61.2823 24.0507C61.0429 24.0225 60.8003 24.0418 60.5683 24.1076L58.4595 24.7008C58.1197 24.7967 57.8149 24.989 57.5821 25.2544L52.3443 12.9639C50.0595 7.15012 39.0496 7.29604 31.5955 7.1866L31.5962 7.18596ZM52.9447 26.0301C53.0688 26.3988 52.6976 26.6445 52.3091 26.6669C52.3091 26.6669 51.0394 26.7744 49.2883 26.9159C47.9559 23.8029 44.8595 21.609 41.2723 21.609C37.3357 21.609 33.9936 24.2522 32.9216 27.8516C32.6247 27.8554 32.2797 27.8682 32.0039 27.8682C25.2218 27.8682 11.6909 26.6669 11.6909 26.6669C11.3031 26.6439 10.9312 26.3981 11.0554 26.0301C16.2663 10.1447 16.4218 11.3389 31.712 11.506C47.0016 11.6724 47.0906 10.5376 52.9447 26.0301ZM41.2723 24.6112C42.2163 24.608 43.1463 24.8398 43.9784 25.2857C44.8104 25.7316 45.5184 26.3776 46.0384 27.1655C42.976 27.3927 39.4515 27.625 36.1671 27.76C36.6397 26.8113 37.3682 26.0136 38.2704 25.4572C39.1726 24.9007 40.2124 24.6077 41.2723 24.6112ZM6.02049 29.7664C6.06657 29.8349 6.11137 29.9034 6.16257 29.9693H5.96417L6.02049 29.7664ZM9.40865 33.7562C10.7501 33.7344 17.9514 36.1581 17.9514 36.1581C18.8506 36.4116 19.6423 38.1114 19.6378 39.0458C19.6243 42.1927 11.504 41.1002 8.20737 41.113C7.98585 41.1134 7.76642 41.0701 7.56167 40.9855C7.35691 40.901 7.17087 40.7768 7.01419 40.6202C6.85752 40.4636 6.73331 40.2776 6.64867 40.0729C6.56403 39.8682 6.52064 39.6488 6.52097 39.4272V35.4432C6.52097 34.5088 8.06721 33.7792 9.40865 33.7562ZM54.5914 33.7562C55.9328 33.7786 57.4791 34.5088 57.4791 35.4432V39.4272C57.4795 39.6488 57.4361 39.8683 57.3515 40.0731C57.2669 40.2779 57.1427 40.464 56.9861 40.6206C56.8294 40.7773 56.6433 40.9015 56.4385 40.9861C56.2337 41.0707 56.0142 41.1141 55.7927 41.1136C52.4967 41.1008 44.3757 42.1927 44.3623 39.0458C44.3578 38.1114 45.1495 36.4116 46.0487 36.1581C46.0487 36.1581 53.2499 33.7344 54.5914 33.7562Z" fill="white"/>
</svg>
