<svg width="64" height="64" viewBox="0 0 64 64" fill="none" xmlns="http://www.w3.org/2000/svg">
<path d="M56 29.3334C56 44.1334 45.76 57.9734 32 61.3334C18.24 57.9734 8 44.1334 8 29.3334V13.3334L32 2.66675L56 13.3334V29.3334ZM32 56.0001C42 53.3334 50.6667 41.4401 50.6667 29.9201V16.8001L32 8.48008L13.3333 16.8001V29.9201C13.3333 41.4401 22 53.3334 32 56.0001ZM39.4667 29.3334V25.3334C39.4667 21.6001 35.7333 18.6667 32 18.6667C28.2667 18.6667 24.5333 21.6001 24.5333 25.3334V29.3334C22.9333 29.3334 21.3333 30.9334 21.3333 32.5334V41.8667C21.3333 43.7334 22.9333 45.3334 24.5333 45.3334H39.2C41.0667 45.3334 42.6667 43.7334 42.6667 42.1334V32.8001C42.6667 30.9334 41.0667 29.3334 39.4667 29.3334ZM36 29.3334H28V25.3334C28 23.2001 29.8667 21.8667 32 21.8667C34.1333 21.8667 36 23.2001 36 25.3334V29.3334Z" fill="white"/>
</svg>
