<svg width="64" height="64" viewBox="0 0 64 64" fill="none" xmlns="http://www.w3.org/2000/svg">
<g clip-path="url(#clip0_1_217)">
<path fill-rule="evenodd" clip-rule="evenodd" d="M32 8C32.7072 8 33.3855 8.28095 33.8856 8.78105C34.3857 9.28115 34.6667 9.95942 34.6667 10.6667C34.6667 11.3739 34.3857 12.0522 33.8856 12.5523C33.3855 13.0524 32.7072 13.3333 32 13.3333H29.3333V16H36.704C37.5316 16.0001 38.3477 16.1927 39.088 16.5627L47.7173 20.8773C48.6035 21.3202 49.3488 22.001 49.8698 22.8437C50.3907 23.6863 50.6666 24.6574 50.6667 25.648V32H53.3333V29.3333C53.3333 28.6261 53.6143 27.9478 54.1144 27.4477C54.6145 26.9476 55.2928 26.6667 56 26.6667C56.7072 26.6667 57.3855 26.9476 57.8856 27.4477C58.3857 27.9478 58.6667 28.6261 58.6667 29.3333V40C58.6667 40.7072 58.3857 41.3855 57.8856 41.8856C57.3855 42.3857 56.7072 42.6667 56 42.6667C55.2928 42.6667 54.6145 42.3857 54.1144 41.8856C53.6143 41.3855 53.3333 40.7072 53.3333 40V37.3333H50.6667V41.3333C50.6667 42.1613 50.4739 42.9779 50.1036 43.7185C49.7333 44.459 49.1957 45.1032 48.5333 45.6L39.6453 52.2667C38.7222 52.959 37.5993 53.3333 36.4453 53.3333H13.3333C11.9188 53.3333 10.5623 52.7714 9.5621 51.7712C8.5619 50.771 8 49.4145 8 48V21.3333C8 19.9188 8.5619 18.5623 9.5621 17.5621C10.5623 16.5619 11.9188 16 13.3333 16H24V13.3333H21.3333C20.6261 13.3333 19.9478 13.0524 19.4477 12.5523C18.9476 12.0522 18.6667 11.3739 18.6667 10.6667C18.6667 9.95942 18.9476 9.28115 19.4477 8.78105C19.9478 8.28095 20.6261 8 21.3333 8H32ZM29.3707 25.7147C28.8106 25.3785 28.1466 25.2595 27.5046 25.3805C26.8626 25.5014 26.2874 25.8537 25.888 26.3707L25.7147 26.6293L21.7387 33.2533C21.5063 33.6396 21.3746 34.0779 21.3557 34.5283C21.3367 34.9786 21.431 35.4265 21.6301 35.8309C21.8291 36.2353 22.1264 36.5833 22.4948 36.843C22.8632 37.1027 23.2909 37.2658 23.7387 37.3173L24.048 37.3333H27.2907L25.7147 39.9627C25.3674 40.5459 25.2556 41.2396 25.4021 41.9025C25.5486 42.5653 25.9423 43.1473 26.503 43.5298C27.0638 43.9124 27.7493 44.0667 28.4199 43.9613C29.0905 43.8559 29.6956 43.4988 30.112 42.9627L30.288 42.7067L34.2613 36.08C34.4937 35.6938 34.6254 35.2554 34.6443 34.8051C34.6633 34.3547 34.569 33.9068 34.3699 33.5024C34.1709 33.098 33.8736 32.75 33.5052 32.4903C33.1368 32.2306 32.7091 32.0675 32.2613 32.016L31.952 32H28.7093L30.2853 29.3707C30.6486 28.7648 30.7566 28.0395 30.5856 27.354C30.4146 26.6686 29.9786 26.079 29.3733 25.7147H29.3707Z" fill="white"/>
</g>
<defs>
<clipPath id="clip0_1_217">
<rect width="64" height="64" rx="20" fill="white"/>
</clipPath>
</defs>
</svg>
