<svg width="64" height="64" viewBox="0 0 64 64" fill="none" xmlns="http://www.w3.org/2000/svg">
<path d="M12.8 21.3334C14.2979 21.3333 15.7693 20.939 17.0665 20.1901C18.3637 19.4411 19.4409 18.3639 20.1899 17.0667H51.2C52.3316 17.0667 53.4168 16.6172 54.217 15.817C55.0171 15.0169 55.4667 13.9316 55.4667 12.8C55.4667 11.6685 55.0171 10.5832 54.217 9.78306C53.4168 8.9829 52.3316 8.53338 51.2 8.53338H20.1899C19.4409 7.23625 18.3637 6.15912 17.0665 5.41023C15.7693 4.66134 14.2978 4.26709 12.8 4.26709C11.3022 4.26709 9.8307 4.66134 8.53351 5.41023C7.23633 6.15912 6.15911 7.23625 5.41013 8.53338H12.8V17.0667H5.41013C6.15906 18.3639 7.23626 19.4411 8.53345 20.1901C9.83064 20.939 11.3021 21.3333 12.8 21.3334ZM9.15626 39.9104C8.75746 40.3103 8.53345 40.8519 8.53333 41.4166V57.6001C8.53333 58.1658 8.75809 58.7085 9.15816 59.1085C9.55824 59.5086 10.1009 59.7334 10.6667 59.7334H17.0667C17.6325 59.7334 18.1751 59.5086 18.5752 59.1085C18.9752 58.7085 19.2 58.1658 19.2 57.6001V55.4667H44.8V57.6001C44.8 58.1658 45.0247 58.7085 45.4248 59.1085C45.8249 59.5086 46.3675 59.7334 46.9333 59.7334H53.3333C53.8991 59.7334 54.4417 59.5086 54.8418 59.1085C55.2419 58.7085 55.4667 58.1658 55.4667 57.6001V41.4166C55.4665 40.8519 55.2425 40.3103 54.8437 39.9104L51.2 36.2667L45.4229 26.6369C45.2331 26.32 44.9642 26.0578 44.6425 25.8761C44.3209 25.6944 43.9577 25.5992 43.5883 25.6H20.4117C20.043 25.6 19.6806 25.6954 19.3598 25.8771C19.0391 26.0589 18.7708 26.3206 18.5813 26.6369L12.8 36.2667L9.15626 39.9104ZM47.5051 38.4001H16.4949L21.6149 29.8667H42.3851L47.5051 38.4001ZM23.4667 46.1995V47.7867C23.4667 48.1262 23.3318 48.4518 23.0918 48.6918C22.8517 48.9319 22.5261 49.0667 22.1867 49.0667H14.08C13.7405 49.0667 13.4149 48.9319 13.1749 48.6918C12.9348 48.4518 12.8 48.1262 12.8 47.7867V44.2283C12.8001 44.0389 12.8422 43.8519 12.9233 43.6808C13.0044 43.5096 13.1225 43.3586 13.269 43.2386C13.4155 43.1186 13.5868 43.0326 13.7706 42.9869C13.9544 42.9411 14.146 42.9367 14.3317 42.9739L22.0971 44.527C22.4833 44.6048 22.8308 44.8139 23.0804 45.1188C23.3301 45.4236 23.4665 45.8055 23.4667 46.1995ZM51.2 44.7489V47.7867C51.2 48.1262 51.0651 48.4518 50.8251 48.6918C50.585 48.9319 50.2595 49.0667 49.92 49.0667H41.8133C41.4739 49.0667 41.1483 48.9319 40.9082 48.6918C40.6682 48.4518 40.5333 48.1262 40.5333 47.7867V45.8497C40.5335 45.554 40.636 45.2675 40.8234 45.0388C41.0109 44.8101 41.2717 44.6534 41.5616 44.5952L49.1563 43.0763C49.4039 43.0264 49.6596 43.0321 49.9048 43.0931C50.15 43.154 50.3787 43.2686 50.5742 43.4286C50.7697 43.5886 50.9273 43.7901 51.0355 44.0184C51.1437 44.2467 51.1999 44.4962 51.2 44.7489Z" fill="white"/>
</svg>
