<svg width="52" height="52" viewBox="0 0 52 52" fill="none" xmlns="http://www.w3.org/2000/svg">
<circle cx="26" cy="26" r="26" fill="url(#paint0_linear_1_178)"/>
<g clip-path="url(#clip0_1_178)">
<path d="M34.4 16.4H36.8M18.8 9.19995H33.2C35.7461 9.19995 38.1879 10.2114 39.9882 12.0117C41.7886 13.8121 42.8 16.2539 42.8 18.8V33.1999C42.8 35.746 41.7886 38.1878 39.9882 39.9882C38.1879 41.7885 35.7461 42.7999 33.2 42.7999H18.8C16.2539 42.7999 13.8121 41.7885 12.0118 39.9882C10.2114 38.1878 9.20001 35.746 9.20001 33.1999V18.8C9.20001 16.2539 10.2114 13.8121 12.0118 12.0117C13.8121 10.2114 16.2539 9.19995 18.8 9.19995ZM26 33.1999C24.0905 33.1999 22.2591 32.4414 20.9088 31.0911C19.5586 29.7409 18.8 27.9095 18.8 26C18.8 24.0904 19.5586 22.259 20.9088 20.9088C22.2591 19.5585 24.0905 18.8 26 18.8C27.9096 18.8 29.7409 19.5585 31.0912 20.9088C32.4414 22.259 33.2 24.0904 33.2 26C33.2 27.9095 32.4414 29.7409 31.0912 31.0911C29.7409 32.4414 27.9096 33.1999 26 33.1999Z" stroke="white" stroke-width="2"/>
</g>
<defs>
<linearGradient id="paint0_linear_1_178" x1="-1.03257e-06" y1="58.4629" x2="60.3653" y2="-0.956029" gradientUnits="userSpaceOnUse">
<stop stop-color="#00095B" stop-opacity="0.5"/>
<stop offset="0.0101015" stop-color="#0E0E0F" stop-opacity="0.8"/>
</linearGradient>
<clipPath id="clip0_1_178">
<rect width="36" height="36" fill="white" transform="translate(8 8)"/>
</clipPath>
</defs>
</svg>
