<svg width="52" height="52" viewBox="0 0 52 52" fill="none" xmlns="http://www.w3.org/2000/svg">
<circle cx="26" cy="26" r="26" fill="url(#paint0_linear_1_174)"/>
<path d="M19.3085 41.7501C32.894 41.7501 40.3257 30.4933 40.3257 20.7486C40.3257 20.4336 40.3257 20.1141 40.3122 19.7991C41.7591 18.7517 43.0079 17.4549 44 15.9696C42.6485 16.5655 41.2162 16.9583 39.7498 17.1351C41.2944 16.2118 42.4514 14.759 43.0055 13.0468C41.5542 13.9066 39.9658 14.5102 38.3097 14.8311C37.1964 13.6454 35.7232 12.8599 34.1182 12.5963C32.5132 12.3327 30.8661 12.6057 29.432 13.373C27.9979 14.1402 26.8568 15.359 26.1855 16.8405C25.5142 18.322 25.3502 19.9834 25.7188 21.5676C22.7819 21.4203 19.9088 20.6574 17.2858 19.3283C14.6629 17.9991 12.3485 16.1335 10.493 13.8523C9.55102 15.4793 9.26354 17.4037 9.68895 19.2349C10.1144 21.0661 11.2208 22.6668 12.7835 23.7118C11.6125 23.6721 10.4672 23.3576 9.44 22.7938V22.8951C9.44202 24.5994 10.0324 26.2508 11.1115 27.5701C12.1905 28.8893 13.6919 29.7956 15.362 30.1356C14.7281 30.3102 14.0733 30.3973 13.4158 30.3943C12.9522 30.3958 12.4896 30.3528 12.0342 30.2661C12.5063 31.7332 13.4254 33.016 14.6628 33.9347C15.9002 34.8534 17.3941 35.362 18.935 35.3893C16.3172 37.4454 13.0837 38.5605 9.755 38.5551C9.16847 38.5576 8.58235 38.5238 8 38.4538C11.3784 40.6077 15.3019 41.7513 19.3085 41.7501Z" fill="white"/>
<defs>
<linearGradient id="paint0_linear_1_174" x1="-1.03257e-06" y1="58.4629" x2="60.3653" y2="-0.956029" gradientUnits="userSpaceOnUse">
<stop stop-color="#00095B" stop-opacity="0.5"/>
<stop offset="0.0101015" stop-color="#0E0E0F" stop-opacity="0.8"/>
</linearGradient>
</defs>
</svg>
